<?xml version="1.0" standalone="no"?>
<!DOCTYPE svg PUBLIC "-//W3C//DTD SVG 20010904//EN"
 "http://www.w3.org/TR/2001/REC-SVG-20010904/DTD/svg10.dtd">
<svg version="1.0" xmlns="http://www.w3.org/2000/svg"
 width="64.000000pt" height="64.000000pt" viewBox="0 0 64.000000 64.000000"
 preserveAspectRatio="xMidYMid meet">

<g transform="translate(0.000000,64.000000) scale(0.100000,-0.100000)"
fill="blue" stroke="none">
<path d="M26 563 c-3 -42 -6 -95 -6 -119 0 -46 2 -47 89 -57 8 -1 19 14 26 33
11 30 16 35 41 33 62 -5 74 -11 69 -41 -3 -15 -10 -85 -16 -157 -6 -72 -13
-133 -16 -137 -2 -5 -42 -8 -89 -8 l-84 0 0 -35 c0 -28 -4 -35 -20 -35 -13 0
-20 -7 -20 -20 0 -20 7 -20 320 -20 313 0 320 0 320 20 0 13 -7 20 -20 20 -16
0 -20 7 -20 35 0 31 -3 35 -25 35 -24 0 -25 3 -25 60 0 47 -3 60 -15 60 -12 0
-15 15 -15 79 0 79 0 80 28 83 22 2 28 8 30 35 4 36 20 31 -253 79 -82 14
-151 27 -153 28 -1 2 3 17 9 35 6 18 9 35 6 38 -4 3 -138 33 -153 33 -1 0 -4
-34 -8 -77z m304 -141 c0 -5 -11 -19 -25 -32 l-25 -23 0 31 c0 27 4 32 25 32
14 0 25 -4 25 -8z m133 -19 c14 -4 17 -17 17 -89 0 -77 -2 -84 -20 -84 -18 0
-20 -7 -20 -60 0 -53 -2 -60 -20 -60 -11 0 -20 7 -20 15 0 15 -15 168 -25 253
l-5 43 38 -6 c20 -4 45 -9 55 -12z m-123 -48 c0 -8 -7 -15 -16 -15 -14 0 -14
3 -4 15 7 8 14 15 16 15 2 0 4 -7 4 -15z m-30 -58 c0 -2 -9 -12 -20 -22 -19
-18 -20 -17 -20 3 0 15 6 22 20 22 11 0 20 -2 20 -3z m40 -42 c0 -20 -5 -25
-27 -25 l-26 0 23 25 c13 14 25 25 27 25 2 0 3 -11 3 -25z m-40 -68 c0 -2 -11
-14 -25 -27 l-25 -23 0 26 c0 22 5 27 25 27 14 0 25 -1 25 -3z m50 -47 c0 -28
-2 -30 -37 -30 l-38 1 35 29 c19 16 36 30 38 30 1 0 2 -13 2 -30z"/>
</g>
</svg>
