<?xml version="1.0" standalone="no"?>
<!DOCTYPE svg PUBLIC "-//W3C//DTD SVG 20010904//EN"
 "http://www.w3.org/TR/2001/REC-SVG-20010904/DTD/svg10.dtd">
<svg version="1.0" xmlns="http://www.w3.org/2000/svg"
 width="96.000000pt" height="96.000000pt" viewBox="0 0 96.000000 96.000000"
 preserveAspectRatio="xMidYMid meet">

<g transform="translate(0.000000,96.000000) scale(0.100000,-0.100000)"
fill="dimgray" stroke="none">
<path d="M437 838 c-4 -24 -9 -74 -12 -113 -4 -38 -8 -82 -11 -97 -5 -26 -5
-26 30 -16 26 8 46 8 72 0 35 -10 35 -10 30 16 -3 15 -7 59 -11 97 -13 157
-13 155 -55 155 -37 0 -38 -1 -43 -42z"/>
<path d="M425 535 c-16 -15 -25 -36 -25 -55 0 -19 9 -40 25 -55 15 -16 36 -25
55 -25 70 0 105 86 55 135 -15 16 -36 25 -55 25 -19 0 -40 -9 -55 -25z"/>
<path d="M225 395 c-55 -41 -101 -80 -103 -88 -2 -7 6 -24 16 -37 l19 -24 119
53 c66 30 121 55 123 57 2 2 -8 17 -23 34 -14 18 -29 42 -32 56 -3 13 -9 24
-13 23 -3 0 -51 -34 -106 -74z"/>
<path d="M616 446 c-3 -14 -18 -38 -32 -56 -15 -17 -25 -32 -23 -33 2 -2 57
-27 123 -57 l118 -54 19 23 c11 13 19 29 19 36 0 11 -200 165 -214 165 -2 0
-7 -11 -10 -24z"/>
<path d="M440 250 l0 -90 -40 0 -40 0 0 -40 0 -40 120 0 120 0 0 40 0 40 -40
0 -40 0 0 90 0 90 -40 0 -40 0 0 -90z"/>
</g>
</svg>
